<svg width="196" height="44" viewBox="0 0 196 44" fill="none" xmlns="http://www.w3.org/2000/svg">
<path fill-rule="evenodd" clip-rule="evenodd" d="M41.4494 11.7439C41.9844 11.6311 42.5407 11.7872 42.939 12.1617C43.3682 12.5707 43.5487 13.1764 43.4132 13.7536L37.0309 40.8791C36.6751 42.389 35.3272 43.4557 33.776 43.4551H9.68402C8.13279 43.4557 6.78495 42.389 6.42914 40.8791L0.04472 13.7536C-0.231524 12.5666 0.814662 11.4926 2.00851 11.7376C3.37654 6.83111 8.47347 3.97251 13.3735 5.36361C13.6133 4.84012 13.9019 4.3403 14.2353 3.8708C18.3324 -1.89864 27.1387 -1.0693 30.0866 5.36361C34.9878 3.9743 40.0841 6.83589 41.4494 11.7439ZM3.9535 15.7613L9.68402 40.1124H14.8066L11.8609 18.0197L3.9535 15.7613ZM13.2836 14.9507L20.4891 12.0677C21.2858 11.7473 22.1753 11.7458 22.973 12.0635L30.1785 14.9465L38.2342 12.6485C37.2384 9.04102 33.158 7.28357 29.8526 9.03842C28.8767 9.55606 27.6761 9.00142 27.4376 7.92282C27.1774 6.75512 26.5655 5.69525 25.6843 4.88612C22.3675 1.84048 16.9975 3.52754 16.0183 7.92282C15.7798 9.00142 14.5791 9.55606 13.6033 9.03842C10.2988 7.28709 6.2222 9.04379 5.2258 12.6485L13.2836 14.9507ZM28.6534 40.1124H33.776L39.5065 15.7613L31.5991 18.0197L28.6534 40.1124ZM19.8063 27.894C19.8063 28.3606 20.3213 28.6433 20.7149 28.3928L24.597 25.9224C24.9621 25.6901 24.9621 25.1571 24.597 24.9248L20.7149 22.4544C20.3213 22.2039 19.8063 22.4867 19.8063 22.9532V27.894Z" fill="#1E293B"/>
<path d="M191.34 34.371V27.7046H195.599V39.556H191.556V37.303H191.432C191.175 38.0591 190.725 38.6506 190.082 39.0776C189.439 39.4994 188.675 39.7103 187.79 39.7103C186.962 39.7103 186.237 39.52 185.615 39.1393C184.997 38.7587 184.516 38.234 184.172 37.5653C183.832 36.8966 183.66 36.1302 183.655 35.266V27.7046H187.914V34.371C187.919 34.9574 188.068 35.4178 188.361 35.7521C188.66 36.0865 189.076 36.2536 189.611 36.2536C189.966 36.2536 190.272 36.179 190.529 36.0299C190.792 35.8756 190.992 35.6595 191.131 35.3817C191.275 35.0988 191.345 34.7619 191.34 34.371Z" fill="#1E293B"/>
<path d="M174.234 39.556V27.7046H178.37V29.9576H178.493C178.709 29.1243 179.052 28.5148 179.52 28.129C179.993 27.7432 180.546 27.5503 181.179 27.5503C181.364 27.5503 181.546 27.5657 181.726 27.5966C181.912 27.6223 182.089 27.6609 182.259 27.7123V31.3464C182.048 31.2744 181.788 31.2204 181.479 31.1844C181.171 31.1484 180.906 31.1304 180.685 31.1304C180.268 31.1304 179.893 31.2256 179.558 31.4159C179.229 31.6011 178.969 31.8634 178.779 32.2029C178.589 32.5372 178.493 32.9307 178.493 33.3834V39.556H174.234Z" fill="#1E293B"/>
<path d="M167.809 34.371V27.7046H172.068V39.556H168.025V37.303H167.901C167.644 38.0591 167.194 38.6506 166.551 39.0776C165.908 39.4994 165.144 39.7103 164.26 39.7103C163.431 39.7103 162.706 39.52 162.084 39.1393C161.467 38.7587 160.986 38.234 160.641 37.5653C160.301 36.8966 160.129 36.1302 160.124 35.266V27.7046H164.383V34.371C164.388 34.9574 164.537 35.4178 164.831 35.7521C165.129 36.0865 165.546 36.2536 166.081 36.2536C166.435 36.2536 166.742 36.179 166.999 36.0299C167.261 35.8756 167.462 35.6595 167.601 35.3817C167.745 35.0988 167.814 34.7619 167.809 34.371Z" fill="#1E293B"/>
<path d="M153.541 28.97C153.474 28.6973 153.369 28.4582 153.225 28.2524C153.081 28.0415 152.901 27.864 152.684 27.72C152.474 27.5708 152.227 27.4603 151.944 27.3882C151.666 27.3111 151.36 27.2725 151.026 27.2725C150.305 27.2725 149.691 27.4448 149.182 27.7895C148.677 28.1341 148.292 28.6305 148.024 29.2786C147.762 29.9267 147.631 30.7086 147.631 31.6242C147.631 32.5501 147.757 33.3422 148.009 34.0006C148.261 34.659 148.636 35.1631 149.135 35.5129C149.634 35.8627 150.254 36.0376 150.995 36.0376C151.648 36.0376 152.191 35.9424 152.623 35.7521C153.06 35.5618 153.387 35.2917 153.603 34.9419C153.819 34.5922 153.927 34.1807 153.927 33.7074L154.667 33.7846H151.056V30.7292H158.062V32.9204C158.062 34.3607 157.756 35.5926 157.144 36.6163C156.537 37.6347 155.699 38.4166 154.629 38.9618C153.564 39.5019 152.342 39.772 150.964 39.772C149.426 39.772 148.076 39.4454 146.913 38.7921C145.751 38.1388 144.843 37.2078 144.189 35.999C143.541 34.7902 143.217 33.3525 143.217 31.6859C143.217 30.3794 143.415 29.222 143.811 28.2138C144.213 27.2056 144.768 26.3543 145.478 25.6599C146.188 24.9604 147.008 24.4331 147.939 24.0782C148.87 23.7181 149.868 23.5381 150.933 23.5381C151.869 23.5381 152.738 23.6718 153.541 23.9393C154.348 24.2016 155.061 24.5771 155.678 25.0658C156.301 25.5493 156.802 26.1229 157.183 26.7864C157.563 27.45 157.795 28.1778 157.877 28.97H153.541Z" fill="#1E293B"/>
<path d="M129.225 32.8893V39.5557H124.966V27.7044H129.009V29.9574H129.132C129.389 29.2064 129.842 28.6174 130.49 28.1905C131.144 27.7635 131.905 27.55 132.774 27.55C133.613 27.55 134.34 27.7429 134.958 28.1287C135.58 28.5094 136.061 29.034 136.401 29.7027C136.745 30.3714 136.915 31.1353 136.91 31.9943V39.5557H132.651V32.8893C132.656 32.3029 132.507 31.8426 132.203 31.5082C131.905 31.1739 131.488 31.0067 130.953 31.0067C130.603 31.0067 130.297 31.0839 130.035 31.2382C129.778 31.3873 129.58 31.6034 129.441 31.8863C129.302 32.1641 129.23 32.4984 129.225 32.8893Z" fill="#1E293B"/>
<path d="M115.545 39.5557V27.7044H119.681V29.9574H119.804C120.02 29.1241 120.362 28.5145 120.83 28.1287C121.303 27.7429 121.856 27.55 122.489 27.55C122.674 27.55 122.857 27.5655 123.037 27.5963C123.222 27.6221 123.4 27.6606 123.569 27.7121V31.3462C123.358 31.2742 123.099 31.2202 122.79 31.1842C122.481 31.1482 122.216 31.1302 121.995 31.1302C121.579 31.1302 121.203 31.2253 120.869 31.4156C120.54 31.6008 120.28 31.8631 120.089 32.2026C119.899 32.537 119.804 32.9305 119.804 33.3831V39.5557H115.545Z" fill="#1E293B"/>
<path d="M107.675 39.7718C106.389 39.7718 105.288 39.5172 104.373 39.0079C103.457 38.4935 102.755 37.7785 102.266 36.8629C101.778 35.9422 101.533 34.8749 101.533 33.6609C101.533 32.447 101.778 31.3822 102.266 30.4666C102.755 29.5459 103.457 28.8309 104.373 28.3216C105.288 27.8072 106.389 27.55 107.675 27.55C108.961 27.55 110.062 27.8072 110.977 28.3216C111.893 28.8309 112.595 29.5459 113.084 30.4666C113.572 31.3822 113.817 32.447 113.817 33.6609C113.817 34.8749 113.572 35.9422 113.084 36.8629C112.595 37.7785 111.893 38.4935 110.977 39.0079C110.062 39.5172 108.961 39.7718 107.675 39.7718ZM107.706 36.6238C108.066 36.6238 108.377 36.5029 108.639 36.2611C108.902 36.0194 109.105 35.6747 109.249 35.2272C109.393 34.7797 109.465 34.2473 109.465 33.63C109.465 33.0076 109.393 32.4753 109.249 32.0329C109.105 31.5854 108.902 31.2407 108.639 30.999C108.377 30.7572 108.066 30.6363 107.706 30.6363C107.325 30.6363 106.999 30.7572 106.726 30.999C106.453 31.2407 106.245 31.5854 106.101 32.0329C105.957 32.4753 105.885 33.0076 105.885 33.63C105.885 34.2473 105.957 34.7797 106.101 35.2272C106.245 35.6747 106.453 36.0194 106.726 36.2611C106.999 36.5029 107.325 36.6238 107.706 36.6238Z" fill="#1E293B"/>
<path d="M94.4982 39.7718C93.2122 39.7718 92.1114 39.5172 91.1958 39.0079C90.2802 38.4935 89.5781 37.7785 89.0894 36.8629C88.6008 35.9422 88.3564 34.8749 88.3564 33.6609C88.3564 32.447 88.6008 31.3822 89.0894 30.4666C89.5781 29.5459 90.2802 28.8309 91.1958 28.3216C92.1114 27.8072 93.2122 27.55 94.4982 27.55C95.6607 27.55 96.6663 27.7609 97.515 28.1827C98.3689 28.5994 99.0299 29.1909 99.4979 29.9574C99.966 30.7186 100.203 31.6137 100.208 32.6424H96.2573C96.2008 32.02 96.0207 31.5468 95.7172 31.2227C95.4189 30.8935 95.0331 30.7289 94.5599 30.7289C94.1895 30.7289 93.8655 30.837 93.5877 31.053C93.3099 31.2639 93.0939 31.5854 92.9396 32.0175C92.7853 32.4444 92.7081 32.9819 92.7081 33.63C92.7081 34.2782 92.7853 34.8183 92.9396 35.2504C93.0939 35.6773 93.3099 35.9988 93.5877 36.2148C93.8655 36.4257 94.1895 36.5312 94.5599 36.5312C94.8737 36.5312 95.1514 36.4592 95.3932 36.3151C95.6349 36.166 95.8304 35.9499 95.9796 35.667C96.1339 35.3789 96.2265 35.0292 96.2573 34.6177H100.208C100.192 35.6619 99.9532 36.5723 99.4902 37.349C99.0273 38.1206 98.3714 38.7173 97.5227 39.1391C96.6791 39.5609 95.6709 39.7718 94.4982 39.7718Z" fill="#1E293B"/>
<path d="M74.7212 44V27.7044H78.9494V29.7722H79.042C79.1963 29.371 79.4226 29.0032 79.721 28.6688C80.0193 28.3293 80.3897 28.0593 80.832 27.8587C81.2744 27.6529 81.7888 27.55 82.3752 27.55C83.157 27.55 83.9003 27.7584 84.605 28.175C85.3149 28.5917 85.891 29.2475 86.3333 30.1425C86.7809 31.0376 87.0046 32.2001 87.0046 33.63C87.0046 34.9983 86.7911 36.1325 86.3642 37.0327C85.9424 37.9329 85.3766 38.6041 84.6667 39.0465C83.962 39.4889 83.1879 39.7101 82.3443 39.7101C81.7888 39.7101 81.2924 39.62 80.8552 39.44C80.4231 39.2548 80.0528 39.0053 79.7441 38.6916C79.4406 38.3727 79.2066 38.0126 79.042 37.6114H78.9803V44H74.7212ZM78.8877 33.63C78.8877 34.2062 78.9623 34.7051 79.1114 35.1269C79.2657 35.5436 79.4818 35.8676 79.7596 36.0991C80.0425 36.3254 80.3794 36.4386 80.7703 36.4386C81.1612 36.4386 81.493 36.328 81.7656 36.1068C82.0434 35.8805 82.2543 35.559 82.3983 35.1423C82.5475 34.7205 82.6221 34.2164 82.6221 33.63C82.6221 33.0437 82.5475 32.5421 82.3983 32.1255C82.2543 31.7037 82.0434 31.3822 81.7656 31.161C81.493 30.9347 81.1612 30.8215 80.7703 30.8215C80.3794 30.8215 80.0425 30.9347 79.7596 31.161C79.4818 31.3822 79.2657 31.7037 79.1114 32.1255C78.9623 32.5421 78.8877 33.0437 78.8877 33.63Z" fill="#1E293B"/>
<path d="M66.8512 39.7718C65.5652 39.7718 64.4645 39.5172 63.5489 39.0079C62.6333 38.4935 61.9311 37.7785 61.4425 36.8629C60.9538 35.9422 60.7095 34.8749 60.7095 33.6609C60.7095 32.447 60.9538 31.3822 61.4425 30.4666C61.9311 29.5459 62.6333 28.8309 63.5489 28.3216C64.4645 27.8072 65.5652 27.55 66.8512 27.55C68.1371 27.55 69.2379 27.8072 70.1535 28.3216C71.0691 28.8309 71.7712 29.5459 72.2599 30.4666C72.7486 31.3822 72.9929 32.447 72.9929 33.6609C72.9929 34.8749 72.7486 35.9422 72.2599 36.8629C71.7712 37.7785 71.0691 38.4935 70.1535 39.0079C69.2379 39.5172 68.1371 39.7718 66.8512 39.7718ZM66.882 36.6238C67.2421 36.6238 67.5533 36.5029 67.8156 36.2611C68.078 36.0194 68.2812 35.6747 68.4252 35.2272C68.5692 34.7797 68.6412 34.2473 68.6412 33.63C68.6412 33.0076 68.5692 32.4753 68.4252 32.0329C68.2812 31.5854 68.078 31.2407 67.8156 30.999C67.5533 30.7572 67.2421 30.6363 66.882 30.6363C66.5014 30.6363 66.1748 30.7572 65.9021 30.999C65.6295 31.2407 65.4212 31.5854 65.2772 32.0329C65.1331 32.4753 65.0611 33.0076 65.0611 33.63C65.0611 34.2473 65.1331 34.7797 65.2772 35.2272C65.4212 35.6747 65.6295 36.0194 65.9021 36.2611C66.1748 36.5029 66.5014 36.6238 66.882 36.6238Z" fill="#1E293B"/>
<path d="M47.0757 39.556V23.7542H53.8964C55.0692 23.7542 56.0954 23.9856 56.9749 24.4486C57.8545 24.9115 58.5387 25.5622 59.0273 26.4006C59.516 27.2391 59.7603 28.219 59.7603 29.3403C59.7603 30.472 59.5083 31.4519 59.0042 32.28C58.5052 33.1082 57.8031 33.746 56.8978 34.1935C55.9976 34.6411 54.9457 34.8648 53.7421 34.8648H49.6682V31.5316H52.8779C53.382 31.5316 53.8115 31.4442 54.1664 31.2693C54.5265 31.0892 54.8017 30.8346 54.992 30.5054C55.1875 30.1762 55.2852 29.7879 55.2852 29.3403C55.2852 28.8877 55.1875 28.5019 54.992 28.183C54.8017 27.8589 54.5265 27.612 54.1664 27.4423C53.8115 27.2674 53.382 27.1799 52.8779 27.1799H51.3656V39.556H47.0757Z" fill="#1E293B"/>
<path d="M114.825 23.5382V22.8438L117.433 19.989C117.739 19.6546 117.991 19.364 118.189 19.1171C118.387 18.8676 118.533 18.6336 118.629 18.415C118.726 18.1938 118.775 17.9623 118.775 17.7206C118.775 17.4428 118.708 17.2023 118.575 16.9991C118.443 16.796 118.263 16.6391 118.034 16.5285C117.806 16.4179 117.548 16.3626 117.263 16.3626C116.959 16.3626 116.694 16.4256 116.468 16.5516C116.244 16.6751 116.071 16.8487 115.947 17.0724C115.826 17.2962 115.766 17.5585 115.766 17.8594H114.856C114.856 17.3965 114.962 16.9901 115.176 16.6404C115.389 16.2906 115.68 16.018 116.048 15.8225C116.418 15.627 116.833 15.5293 117.294 15.5293C117.757 15.5293 118.167 15.627 118.524 15.8225C118.882 16.018 119.162 16.2816 119.365 16.6134C119.569 16.9451 119.67 17.3142 119.67 17.7206C119.67 18.0112 119.617 18.2954 119.512 18.5732C119.409 18.8483 119.229 19.1557 118.972 19.4952C118.717 19.8321 118.364 20.2436 117.911 20.7297L116.136 22.6278V22.6895H119.809V23.5382H114.825Z" fill="#1E293B"/>
<path d="M108.247 23.5382V22.8438L110.855 19.989C111.161 19.6546 111.413 19.364 111.611 19.1171C111.809 18.8676 111.956 18.6336 112.051 18.415C112.149 18.1938 112.198 17.9623 112.198 17.7206C112.198 17.4428 112.131 17.2023 111.997 16.9991C111.866 16.796 111.686 16.6391 111.457 16.5285C111.228 16.4179 110.971 16.3626 110.685 16.3626C110.382 16.3626 110.117 16.4256 109.891 16.5516C109.667 16.6751 109.493 16.8487 109.37 17.0724C109.249 17.2962 109.188 17.5585 109.188 17.8594H108.278C108.278 17.3965 108.385 16.9901 108.598 16.6404C108.812 16.2906 109.102 16.018 109.47 15.8225C109.84 15.627 110.256 15.5293 110.716 15.5293C111.179 15.5293 111.589 15.627 111.947 15.8225C112.304 16.018 112.585 16.2816 112.788 16.6134C112.991 16.9451 113.093 17.3142 113.093 17.7206C113.093 18.0112 113.04 18.2954 112.934 18.5732C112.831 18.8483 112.651 19.1557 112.394 19.4952C112.14 19.8321 111.786 20.2436 111.333 20.7297L109.559 22.6278V22.6895H113.231V23.5382H108.247Z" fill="#1E293B"/>
<path d="M104.034 23.6463C103.453 23.6463 102.958 23.4881 102.549 23.1717C102.14 22.8528 101.828 22.3912 101.612 21.7868C101.396 21.1798 101.288 20.4468 101.288 19.5878C101.288 18.7339 101.396 18.0048 101.612 17.4004C101.83 16.7934 102.144 16.3304 102.553 16.0115C102.964 15.69 103.458 15.5293 104.034 15.5293C104.61 15.5293 105.103 15.69 105.512 16.0115C105.923 16.3304 106.237 16.7934 106.453 17.4004C106.672 18.0048 106.781 18.7339 106.781 19.5878C106.781 20.4468 106.673 21.1798 106.457 21.7868C106.241 22.3912 105.929 22.8528 105.52 23.1717C105.111 23.4881 104.616 23.6463 104.034 23.6463ZM104.034 22.7975C104.61 22.7975 105.058 22.5198 105.377 21.9642C105.696 21.4087 105.855 20.6165 105.855 19.5878C105.855 18.9036 105.782 18.3211 105.635 17.8402C105.491 17.3592 105.283 16.9927 105.01 16.7407C104.74 16.4886 104.415 16.3626 104.034 16.3626C103.463 16.3626 103.017 16.6442 102.696 17.2075C102.374 17.7681 102.213 18.5616 102.213 19.5878C102.213 20.2719 102.285 20.8532 102.43 21.3315C102.574 21.8099 102.781 22.1738 103.051 22.4233C103.323 22.6728 103.651 22.7975 104.034 22.7975Z" fill="#1E293B"/>
<path d="M94.8799 23.5382V22.8438L97.4878 19.989C97.7939 19.6546 98.0459 19.364 98.2439 19.1171C98.442 18.8676 98.5886 18.6336 98.6837 18.415C98.7815 18.1938 98.8303 17.9623 98.8303 17.7206C98.8303 17.4428 98.7635 17.2023 98.6297 16.9991C98.4986 16.796 98.3185 16.6391 98.0896 16.5285C97.8607 16.4179 97.6035 16.3626 97.3181 16.3626C97.0146 16.3626 96.7497 16.4256 96.5233 16.5516C96.2996 16.6751 96.126 16.8487 96.0025 17.0724C95.8816 17.2962 95.8212 17.5585 95.8212 17.8594H94.9107C94.9107 17.3965 95.0175 16.9901 95.231 16.6404C95.4444 16.2906 95.735 16.018 96.1028 15.8225C96.4732 15.627 96.8885 15.5293 97.3489 15.5293C97.8119 15.5293 98.2221 15.627 98.5796 15.8225C98.9371 16.018 99.2174 16.2816 99.4206 16.6134C99.6238 16.9451 99.7253 17.3142 99.7253 17.7206C99.7253 18.0112 99.6726 18.2954 99.5672 18.5732C99.4643 18.8483 99.2843 19.1557 99.0271 19.4952C98.7725 19.8321 98.4188 20.2436 97.9662 20.7297L96.1916 22.6278V22.6895H99.8642V23.5382H94.8799Z" fill="#1E293B"/>
<path d="M88.001 23.6617C87.43 23.6617 86.9375 23.5357 86.5234 23.2836C86.1119 23.029 85.7943 22.6741 85.5705 22.2189C85.3494 21.7611 85.2388 21.2287 85.2388 20.6217C85.2388 20.0147 85.3494 19.4798 85.5705 19.0168C85.7943 18.5513 86.1055 18.1887 86.5041 17.9289C86.9054 17.6666 87.3735 17.5354 87.9084 17.5354C88.217 17.5354 88.5218 17.5868 88.8227 17.6897C89.1236 17.7926 89.3975 17.9598 89.6444 18.1912C89.8913 18.4201 90.0881 18.7236 90.2347 19.1017C90.3813 19.4798 90.4546 19.9453 90.4546 20.4982V20.884H85.8869V20.097H89.5287C89.5287 19.7627 89.4618 19.4643 89.3281 19.202C89.1969 18.9397 89.0092 18.7326 88.7649 18.5809C88.5231 18.4291 88.2376 18.3533 87.9084 18.3533C87.5458 18.3533 87.232 18.4433 86.9671 18.6233C86.7048 18.8008 86.5029 19.0323 86.3614 19.3177C86.22 19.6032 86.1492 19.9093 86.1492 20.2359V20.7606C86.1492 21.2081 86.2264 21.5874 86.3807 21.8986C86.5376 22.2073 86.7549 22.4426 87.0327 22.6046C87.3104 22.7641 87.6332 22.8438 88.001 22.8438C88.2402 22.8438 88.4562 22.8104 88.6491 22.7435C88.8446 22.6741 89.013 22.5712 89.1545 22.4349C89.2959 22.296 89.4053 22.1237 89.4824 21.9179L90.362 22.1648C90.2694 22.4632 90.1138 22.7255 89.8952 22.9518C89.6766 23.1756 89.4065 23.3505 89.0851 23.4765C88.7636 23.6 88.4022 23.6617 88.001 23.6617Z" fill="#1E293B"/>
<path d="M81.8555 23.6617C81.2999 23.6617 80.8216 23.5305 80.4204 23.2682C80.0191 23.0059 79.7105 22.6445 79.4945 22.1841C79.2784 21.7238 79.1704 21.1978 79.1704 20.6063C79.1704 20.0044 79.281 19.4733 79.5022 19.013C79.7259 18.55 80.0371 18.1887 80.4358 17.9289C80.837 17.6666 81.3051 17.5354 81.84 17.5354C82.2567 17.5354 82.6322 17.6126 82.9665 17.7669C83.3009 17.9212 83.5748 18.1372 83.7883 18.415C84.0017 18.6928 84.1342 19.0168 84.1856 19.3872H83.2752C83.2057 19.1171 83.0514 18.8779 82.8122 18.6696C82.5756 18.4587 82.2567 18.3533 81.8555 18.3533C81.5006 18.3533 81.1894 18.4459 80.9219 18.631C80.657 18.8136 80.4499 19.0721 80.3008 19.4065C80.1542 19.7382 80.0809 20.1279 80.0809 20.5754C80.0809 21.0332 80.1529 21.4318 80.2969 21.7713C80.4435 22.1108 80.6493 22.3745 80.9142 22.5622C81.1816 22.75 81.4954 22.8438 81.8555 22.8438C82.0921 22.8438 82.3068 22.8027 82.4997 22.7204C82.6926 22.6381 82.8559 22.5198 82.9897 22.3655C83.1234 22.2111 83.2186 22.026 83.2752 21.8099H84.1856C84.1342 22.1597 84.0069 22.4748 83.8037 22.7551C83.6031 23.0329 83.3369 23.254 83.0051 23.4186C82.6759 23.5807 82.2927 23.6617 81.8555 23.6617Z" fill="#1E293B"/>
<path d="M74.0037 19.9736V23.5382H73.0933V17.6126H73.9729V18.5384H74.05C74.1889 18.2375 74.3998 17.9958 74.6827 17.8132C74.9656 17.628 75.3308 17.5354 75.7783 17.5354C76.1795 17.5354 76.5306 17.6177 76.8315 17.7823C77.1324 17.9443 77.3665 18.1912 77.5337 18.523C77.7008 18.8522 77.7844 19.2689 77.7844 19.773V23.5382H76.874V19.8347C76.874 19.3692 76.7531 19.0065 76.5113 18.7468C76.2696 18.4844 75.9378 18.3533 75.516 18.3533C75.2254 18.3533 74.9656 18.4163 74.7367 18.5423C74.5104 18.6683 74.3316 18.8522 74.2005 19.094C74.0693 19.3357 74.0037 19.6289 74.0037 19.9736Z" fill="#1E293B"/>
<path d="M70.5157 23.5382V17.6125H71.4262V23.5382H70.5157ZM70.9787 16.6249C70.8012 16.6249 70.6482 16.5645 70.5196 16.4436C70.3936 16.3227 70.3306 16.1774 70.3306 16.0076C70.3306 15.8379 70.3936 15.6926 70.5196 15.5717C70.6482 15.4508 70.8012 15.3904 70.9787 15.3904C71.1561 15.3904 71.3079 15.4508 71.4339 15.5717C71.5625 15.6926 71.6268 15.8379 71.6268 16.0076C71.6268 16.1774 71.5625 16.3227 71.4339 16.4436C71.3079 16.5645 71.1561 16.6249 70.9787 16.6249Z" fill="#1E293B"/>
<path d="M68.0319 17.6125C67.9856 17.2216 67.7978 16.9181 67.4686 16.7021C67.1394 16.486 66.7356 16.378 66.2573 16.378C65.9075 16.378 65.6014 16.4346 65.3391 16.5478C65.0793 16.6609 64.8761 16.8165 64.7295 17.0146C64.5855 17.2126 64.5135 17.4377 64.5135 17.6897C64.5135 17.9006 64.5637 18.0819 64.664 18.2337C64.7668 18.3828 64.898 18.5076 65.0575 18.6079C65.2169 18.7056 65.3841 18.7866 65.559 18.8509C65.7339 18.9126 65.8946 18.9628 66.0412 19.0014L66.8437 19.2174C67.0494 19.2714 67.2783 19.346 67.5304 19.4412C67.785 19.5363 68.028 19.6662 68.2595 19.8308C68.4935 19.9929 68.6864 20.2012 68.8382 20.4558C68.9899 20.7104 69.0658 21.0229 69.0658 21.3933C69.0658 21.8202 68.9539 22.206 68.7301 22.5506C68.509 22.8953 68.1849 23.1692 67.758 23.3723C67.3336 23.5755 66.8179 23.6771 66.211 23.6771C65.6451 23.6771 65.1552 23.5858 64.7411 23.4032C64.3296 23.2206 64.0056 22.966 63.7689 22.6393C63.5349 22.3127 63.4024 21.9334 63.3716 21.5013H64.3592C64.3849 21.7996 64.4852 22.0465 64.6601 22.242C64.8376 22.4349 65.0613 22.5789 65.3314 22.6741C65.604 22.7667 65.8972 22.813 66.211 22.813C66.5762 22.813 66.9041 22.7538 67.1947 22.6355C67.4853 22.5146 67.7155 22.3474 67.8853 22.134C68.055 21.9179 68.1399 21.6659 68.1399 21.3778C68.1399 21.1155 68.0666 20.902 67.92 20.7374C67.7734 20.5728 67.5805 20.4391 67.3413 20.3362C67.1021 20.2333 66.8437 20.1433 66.5659 20.0662L65.5937 19.7884C64.9765 19.6109 64.4878 19.3576 64.1277 19.0284C63.7677 18.6992 63.5876 18.2684 63.5876 17.736C63.5876 17.2936 63.7072 16.9078 63.9464 16.5786C64.1882 16.2469 64.5122 15.9897 64.9186 15.8071C65.3275 15.6219 65.784 15.5293 66.2881 15.5293C66.7974 15.5293 67.25 15.6206 67.6461 15.8032C68.0422 15.9832 68.3559 16.2301 68.5874 16.5439C68.8214 16.8577 68.9449 17.2139 68.9578 17.6125H68.0319Z" fill="#1E293B"/>
</svg>
